<svg xmlns="http://www.w3.org/2000/svg" viewBox="0 0 128 128">
  <g id="crontab">
    <path d="M 8 16 l 112 0 a 8 8 0 0 0 0 -16 l -112 0 a 8 8 0 0 0 0 16 Z" style="stroke: black; stroke-width: 0; fill: rgb(35, 236, 169);" transform="translate(0 16)"/>
    <path d="M 8 16 l 112 0 a 8 8 0 0 0 0 -16 l -112 0 a 8 8 0 0 0 0 16 Z" style="stroke: black; stroke-width: 0; fill: rgb(28, 153, 255);" transform="translate(0 32)"/>
    <path d="M 8 16 l 112 0 a 8 8 0 0 0 0 -16 l -112 0 a 8 8 0 0 0 0 16 Z" style="stroke: black; stroke-width: 0; fill: rgba(150, 40, 95, 1);" transform="translate(0 48)"/>
    <path d="M 94 80 l -24 0 a 24 24 0 0 1 0 -80 c 8 0 32 16 8 16 l -23 0 a 24 24 0 0 0 0 48 l 32 0 c 8 0 32 16 8 16 Z" style="stroke: black; fill: rgb(32, 42, 113); stroke-width: 0;" transform="translate(0 0)"/>
    <path d="M 8 16 l 112 0 a 8 8 0 0 0 0 -16 l -112 0 a 8 8 0 0 0 0 16 Z" style="stroke: black; stroke-width: 0; fill: rgba(225, 225, 44, 1);" transform="translate(0 80)"/>
    <path d="M 0 0 l 32 0 a 16 16 0 0 0 0 32 l -32 0 a 16 16 0 1 0 0 -32 Z" style="stroke-width: 0; stroke: rgb(0, 0, 0); fill: rgb(0, 0, 0);" transform="translate(48 96)"/>
    
  </g>
</svg>