<?xml version="1.0" encoding="utf-8"?>
<svg width="16px" height="16px" viewBox="0 0 128 128" xmlns="http://www.w3.org/2000/svg">
  <g id="crontab" transform="">
    <path d="M 16 16 l 96 0 a 8 8 0 0 0 0 -16 l -96 0 a 8 8 0 0 0 0 16 Z" style="stroke: black; stroke-width: 0;" transform="translate(0 32)"/>
    <path d="M 16 16 l 96 0 a 8 8 0 0 0 0 -16 l -96 0 a 8 8 0 0 0 0 16 Z" style="stroke: black; stroke-width: 0;" transform="translate(0 48)"/>
    <path d="M 0 0 l 16 0 0 16 -16 0 Z" style="stroke-width: 0; stroke: rgb(152, 101, 46);" transform="translate(56 96)"/>
    <path d="M 16 16 l 96 0 a 8 8 0 0 0 0 -16 l -96 0 a 8 8 0 0 0 0 16 Z" style="stroke: black; stroke-width: 0;" transform="translate(0 80)"/>
    <path d="M 98 64 l -24 0 a 32 32 0 0 1 0 -64 c 8 0 32 16 8 16 l -23 0 a 16 16 0 0 0 0 32 l 32 0 c 8 0 32 16 8 16 Z" style="stroke: black; stroke-width: 0;" transform="translate(0 16)"/>
  </g>
</svg>